<?xml version="1.0" encoding="UTF-8"?>
<svg width="5120" height="1024" viewBox="0 0 5120 1024" fill="none" xmlns="http://www.w3.org/2000/svg">
<path d="M230.997 511.999L116.53 626.466L2.06299 511.999L116.53 397.532L230.997 511.999ZM511.999 230.997L741.063 460.061L855.53 345.594L511.999 2.06299L168.468 345.594L282.935 460.061L511.999 230.997ZM907.468 397.532L793.001 511.999L907.468 626.466L1021.93 511.999L907.468 397.532ZM511.999 793.001L282.935 563.937L168.468 678.404L511.999 1021.93L855.53 678.404L741.063 563.937L511.999 793.001ZM511.999 626.466L626.466 511.999L511.999 397.532L397.532 511.999L511.999 626.466Z" fill="white"/>
</svg>
