<?xml version="1.0" encoding="UTF-8"?>
<svg width="2500" height="2500" viewBox="0 0 32 32" xmlns="http://www.w3.org/2000/svg">
<path fill="#FFFFFF" d="M16 0l-5.39 3.12v5.22l-5.39 3.12v5.22l5.39 3.12 5.39-3.12 5.39 3.12 5.39-3.12v-5.22l-5.39-3.12V3.12L16 0zm0 6.24l2.7 1.56v3.12l-2.7 1.56-2.7-1.56V7.8l2.7-1.56zm-8.09 9.36V12.5l2.7-1.56 2.7 1.56v3.12l-2.7 1.56-2.7-1.56zm10.79 0V12.5l2.7-1.56 2.7 1.56v3.12l-2.7 1.56-2.7-1.56z"/>
<path fill="#FFFFFF" d="M16 32l5.39-3.12v-5.22l5.39-3.12v-5.22L21.39 12.2 16 15.32l-5.39-3.12L5.22 15.32v5.22l5.39 3.12v5.22L16 32zm0-6.24l-2.7-1.56v-3.12l2.7-1.56 2.7 1.56v3.12l-2.7 1.56zm8.09-9.36v3.12l-2.7 1.56-2.7-1.56v-3.12l2.7-1.56 2.7 1.56zm-10.79 0v3.12l-2.7 1.56-2.7-1.56v-3.12l2.7-1.56 2.7 1.56z"/>
</svg>
